<?xml version="1.0" encoding="utf-8"?>
<!-- Generator: Adobe Illustrator 22.0.1, SVG Export Plug-In . SVG Version: 6.00 Build 0)  -->
<svg version="1.1" id="图层_1" xmlns="http://www.w3.org/2000/svg" xmlns:xlink="http://www.w3.org/1999/xlink" x="0px" y="0px"
	 viewBox="0 0 258.6 50.5" style="enable-background:new 0 0 258.6 50.5;" xml:space="preserve">
<style type="text/css">
	.st0{fill:#FFFFFF;}
	.st1{display:none;fill:#FFFFFF;}
	.st2{fill:#E50D0D;}
</style>
<g>
	<path class="st0" d="M70.3,8.8c-1,0-1.7-0.2-2.1-0.6c-0.4-0.4-0.6-1.1-0.6-2.1c0-0.9,0.2-1.6,0.6-2c0.4-0.4,1.1-0.6,2.1-0.6h36.2
		c1.1,0,1.8,0.2,2.2,0.6c0.4,0.4,0.6,1.1,0.6,2c0,1-0.2,1.7-0.6,2.1c-0.4,0.4-1.1,0.6-2.2,0.6H101v12.9h8c1,0,1.8,0.2,2.1,0.5
		c0.4,0.4,0.6,1,0.6,1.8c0,0.9-0.2,1.6-0.6,2.1c-0.4,0.5-1.1,0.7-2.1,0.7h-8v16.8c0,1.1-0.3,1.8-0.9,2.2c-0.6,0.4-1.3,0.6-2.1,0.6
		c-0.8,0-1.5-0.2-2.1-0.6c-0.6-0.4-0.9-1.1-0.9-2.1V26.8H82c-0.2,2.3-0.5,4.4-1,6.3c-0.5,1.8-1.2,3.5-2,5c-0.9,1.5-1.9,2.8-3.1,4.1
		c-1.2,1.2-2.6,2.4-4.2,3.6c-0.9,0.7-1.8,1-2.6,1c-0.8-0.1-1.5-0.5-2-1.3c-0.6-0.8-0.7-1.6-0.5-2.3c0.2-0.7,0.7-1.4,1.6-2
		c1.3-0.9,2.4-1.8,3.3-2.7c0.9-0.9,1.7-1.9,2.4-3c0.6-1.1,1.2-2.3,1.5-3.7c0.4-1.4,0.6-3,0.8-4.9h-7.9c-1,0-1.8-0.2-2.1-0.7
		s-0.6-1.2-0.6-2.1c0-0.8,0.2-1.4,0.6-1.8c0.4-0.4,1.1-0.5,2.1-0.5h8V8.8H70.3z M82.2,21.7h12.9V8.8H82.2V21.7z"/>
	<path class="st0" d="M126.5,23.1c-0.6,0.6-1.3,0.9-2,0.8c-0.7-0.1-1.5-0.5-2.4-1.4c-0.4-0.3-1-0.7-1.7-1.3
		c-0.7-0.6-1.5-1.2-2.2-1.8c-0.7-0.7-1.2-1.3-1.3-1.9c-0.2-0.6,0.1-1.4,0.7-2.2c1.1-1.4,2.5-1.4,4.3-0.1c0.6,0.5,1.4,1.1,2.2,1.7
		c0.8,0.6,1.5,1.2,2.1,1.7c0.7,0.7,1.2,1.4,1.4,2.1C127.7,21.5,127.4,22.3,126.5,23.1L126.5,23.1z M127.7,31.7
		c-0.6,2.5-1.3,4.9-2,7.1c-0.7,2.2-1.6,4.4-2.7,6.6c-0.4,1-1.1,1.6-1.9,1.8c-0.8,0.3-1.6,0.2-2.3-0.2c-0.8-0.4-1.2-1-1.4-1.7
		c-0.2-0.7,0.1-1.7,0.8-2.9c0.9-1.7,1.7-3.6,2.4-5.6c0.6-2,1.3-4.2,1.9-6.5c0.3-1.1,0.6-1.9,1.1-2.3c0.5-0.4,1.3-0.5,2.2-0.3
		c1,0.2,1.6,0.5,2,1.1C128,29.4,128,30.3,127.7,31.7z M128.5,11.9c-0.6,0.6-1.3,0.9-2,0.8c-0.7-0.1-1.5-0.5-2.4-1.3
		c-0.6-0.5-1.3-1.1-2.1-1.8c-0.8-0.6-1.4-1.1-1.9-1.5c-0.8-0.6-1.2-1.3-1.4-1.9s0.1-1.3,0.7-2.2c0.5-0.7,1.2-1.1,1.9-1.2
		c0.7-0.1,1.5,0.2,2.4,0.8c0.6,0.4,1.1,0.8,1.5,1.2c0.4,0.3,0.8,0.7,1.1,1c0.3,0.3,0.6,0.5,0.9,0.8c0.3,0.2,0.5,0.5,0.8,0.7
		c0.7,0.7,1.2,1.4,1.4,2.1C129.7,10.3,129.4,11,128.5,11.9L128.5,11.9z M142.5,11.8c-1.6,0-2.7,0.4-3.4,1.1
		c-0.6,0.7-0.9,1.9-0.9,3.6v10.6c0,3.1,1.4,4.7,4.3,4.7h4.3v9c0,0.5-0.1,0.8-0.3,0.9s-0.8,0.1-1.9-0.3c-1.1-0.3-1.9-0.4-2.3-0.1
		c-0.4,0.2-0.8,0.8-1,1.5c-0.3,0.9-0.2,1.7,0.1,2.3c0.3,0.6,1.1,1,2.2,1.2c1.6,0.3,2.8,0.4,3.8,0.5c1,0,1.8-0.2,2.4-0.6
		c0.6-0.4,1-1.1,1.3-1.9c0.2-0.9,0.4-2,0.4-3.5v-9h4.3c1.6,0,2.8-0.3,3.4-1c0.7-0.7,1-1.9,1-3.6V16.5c0-1.7-0.3-2.8-0.9-3.6
		c-0.6-0.7-1.7-1.1-3.3-1.1H151c0.1-0.2,0.2-0.4,0.3-0.5c0-0.1,0.1-0.1,0.1-0.2c0.5-1.2,0.5-2.1,0-2.7h8.4c1,0,1.6-0.2,2-0.6
		c0.3-0.4,0.5-1,0.5-1.9c0-0.9-0.2-1.5-0.5-1.9c-0.3-0.4-1-0.6-2-0.6H135c-1.6,0-2.8,0.4-3.5,1.2c-0.7,0.8-1.1,2.1-1.1,3.9v12.3
		c0,2.9,0,5.3-0.1,7.4c0,2.1-0.2,3.9-0.3,5.5c-0.2,1.6-0.4,3-0.7,4.2c-0.3,1.2-0.7,2.3-1.2,3.4c-0.3,0.6-0.5,1.1-0.6,1.5
		c-0.2,0.4-0.2,0.8-0.2,1.2c0,0.3,0.1,0.7,0.3,1c0.2,0.3,0.5,0.6,0.9,0.9c0.7,0.4,1.4,0.6,2,0.5c0.6-0.1,1.2-0.7,1.8-1.8
		c0.6-1.4,1.2-2.8,1.6-4.4c0.4-1.6,0.7-3.3,1-5.2c0.2-1.9,0.4-4,0.5-6.3c0.1-2.3,0.1-4.8,0.1-7.5V9.7c0-0.5,0.1-0.8,0.2-1
		s0.3-0.2,0.5-0.2h11.2c-0.1,0.1-0.1,0.2-0.2,0.4c-0.1,0.1-0.1,0.2-0.2,0.4c-0.4,0.9-0.9,1.8-1.5,2.6L142.5,11.8L142.5,11.8z
		 M143.3,36.4c0.4-1,0.6-1.8,0.5-2.4c-0.1-0.6-0.6-1-1.4-1.4c-0.8-0.3-1.4-0.4-1.9,0c-0.5,0.3-0.9,0.9-1.3,1.7
		c-0.3,0.9-0.6,1.6-0.9,2.2c-0.3,0.6-0.5,1.2-0.8,1.8c-0.3,0.5-0.6,1.1-1,1.7c-0.4,0.6-0.8,1.3-1.3,2c-0.6,0.9-0.8,1.6-0.8,2.3
		c0,0.6,0.3,1.2,0.8,1.6c0.7,0.5,1.3,0.7,2,0.5c0.6-0.2,1.2-0.7,1.7-1.4c0.9-1.4,1.7-2.9,2.5-4.3C142.1,39.3,142.7,37.9,143.3,36.4z
		 M155.3,19.5h-12.1v-2.3c0-0.3,0.1-0.6,0.2-0.6c0.1-0.1,0.3-0.1,0.5-0.1h10.7c0.5,0,0.7,0.3,0.7,0.8L155.3,19.5L155.3,19.5z
		 M155.3,26.3c0,0.6-0.2,0.9-0.7,0.9h-10.7c-0.4,0-0.7-0.3-0.7-0.9V24h12.1L155.3,26.3L155.3,26.3z M161.4,41.2
		c-0.4-0.8-0.8-1.4-1.1-2c-0.3-0.6-0.7-1.2-1-1.7c-0.3-0.6-0.7-1.1-1.1-1.7c-0.4-0.6-0.8-1.2-1.3-2c-0.6-0.8-1.2-1.2-1.8-1.2
		c-0.7,0-1.2,0.2-1.7,0.7c-0.3,0.3-0.5,0.6-0.6,1c-0.1,0.3-0.1,0.7-0.1,1c0,0.3,0.1,0.7,0.3,1c0.1,0.3,0.3,0.6,0.5,0.8
		c0.4,0.5,0.7,1.1,1.1,1.5c0.3,0.5,0.7,1,1,1.5c0.3,0.5,0.6,1.1,1,1.7s0.7,1.3,1.1,2c0.5,0.9,0.9,1.5,1.4,1.7s1.1,0.2,1.8-0.2
		c0.8-0.4,1.3-0.9,1.3-1.7C162.1,43,161.9,42.1,161.4,41.2z"/>
	<path class="st1" d="M185.1,4.2c0-1,0.2-1.8,0.7-2.1c0.4-0.4,1.2-0.6,2.2-0.6c1,0,1.7,0.2,2.2,0.6c0.5,0.4,0.7,1.1,0.7,2.1v6h11.7
		c1.2,0,2.1,0.1,2.8,0.2s1.3,0.4,1.7,0.7c0.4,0.4,0.7,0.9,0.8,1.6c0.1,0.7,0.2,1.6,0.2,2.8v14.4c0,1-0.1,1.9-0.2,2.6
		c-0.1,0.7-0.4,1.2-0.8,1.6c-0.4,0.4-1,0.7-1.7,0.8s-1.7,0.2-2.8,0.2h-11.8V45c0,0.8-0.2,1.5-0.6,2c-0.4,0.5-1.2,0.7-2.3,0.7
		c-1.2,0-2-0.2-2.4-0.6c-0.4-0.4-0.5-1.1-0.5-2.1v-9.8h-11.5c-1.1,0-2.1-0.1-2.8-0.2c-0.7-0.2-1.3-0.4-1.7-0.8
		c-0.4-0.4-0.7-0.9-0.8-1.6c-0.1-0.7-0.2-1.5-0.2-2.5V15.4c0-1.1,0.1-2,0.2-2.6c0.1-0.7,0.4-1.2,0.8-1.6c0.4-0.4,1-0.6,1.7-0.8
		c0.7-0.1,1.6-0.2,2.8-0.2h11.5L185.1,4.2L185.1,4.2z M175,15.9c-0.5,0-0.8,0.1-0.9,0.2c-0.1,0.2-0.2,0.6-0.2,1.2v10.5
		c0,0.8,0.1,1.2,0.2,1.4c0.1,0.2,0.5,0.3,1,0.3h9.9V15.9H175z M190.9,15.9v13.6H201c0.6,0,1-0.1,1.1-0.3c0.1-0.2,0.2-0.7,0.2-1.4
		V17.3c0-0.6-0.1-1-0.3-1.2c-0.2-0.2-0.7-0.3-1.4-0.3H190.9z"/>
	<path class="st1" d="M256.7,40.8c0,1.8-0.4,3.1-1.1,4c-0.7,0.8-2,1.2-4,1.2h-32.3c-1.9,0-3.2-0.4-3.9-1.2c-0.7-0.8-1-2.1-1-4V8.5
		c0-1.8,0.3-3.1,1-3.9c0.6-0.8,1.9-1.2,3.8-1.2h32.4c1.9,0,3.2,0.4,4,1.2c0.7,0.8,1.1,2.1,1.1,3.9L256.7,40.8L256.7,40.8z
		 M220.9,8.6c-0.4,0-0.7,0.1-0.9,0.3c-0.2,0.2-0.3,0.6-0.3,1.1v28.9c0,1.3,0.6,2,1.7,2h28.9c0.4,0,0.7-0.2,1-0.5
		c0.2-0.3,0.3-0.8,0.3-1.4V9.9c0-0.4-0.1-0.8-0.4-1c-0.3-0.2-0.7-0.3-1.4-0.3H220.9z M224.6,16.8c-1.1,0-1.9-0.2-2.2-0.5
		c-0.4-0.3-0.6-1-0.6-2c0-1,0.2-1.7,0.6-2c0.4-0.3,1.1-0.5,2.2-0.5h21.8c1.1,0,1.9,0.2,2.3,0.5s0.6,1,0.6,2c0,1-0.2,1.6-0.6,1.9
		c-0.4,0.3-1.1,0.5-2.3,0.5h-9.1v4.4h7.4c1.1,0,1.8,0.2,2.2,0.5s0.6,1,0.6,1.9s-0.2,1.5-0.6,1.9c-0.4,0.3-1.2,0.5-2.2,0.5h-1
		c0.6,0.7,1.2,1.3,1.6,1.9c0.4,0.6,0.9,1.2,1.5,2c0.4,0.6,0.7,1.1,0.6,1.7c0,0.6-0.2,1-0.7,1.5h0.3c1.1,0,1.9,0.2,2.2,0.6
		c0.4,0.4,0.6,1.1,0.6,2c0,0.9-0.2,1.5-0.6,1.9c-0.4,0.3-1.1,0.5-2.2,0.5H224c-1.1,0-1.9-0.2-2.2-0.5c-0.4-0.3-0.6-0.9-0.6-1.9
		c0-0.9,0.2-1.6,0.6-2c0.4-0.4,1.1-0.6,2.2-0.6h8v-7H226c-1.1,0-1.9-0.2-2.3-0.5s-0.6-1-0.6-1.9c0-0.9,0.2-1.5,0.6-1.9
		c0.4-0.3,1.1-0.5,2.3-0.5h6.1v-4.4L224.6,16.8L224.6,16.8z M240.3,29.5c-0.6-0.7-0.9-1.4-0.9-2c0-0.6,0.3-1.1,0.7-1.5h-2.7v7h6
		c-0.1-0.1-0.2-0.2-0.3-0.3c-0.1-0.1-0.2-0.2-0.3-0.3c-0.3-0.3-0.5-0.6-0.7-0.8c-0.2-0.2-0.3-0.4-0.5-0.6c-0.1-0.2-0.3-0.4-0.5-0.6
		C240.9,30.2,240.7,29.9,240.3,29.5z"/>
</g>
<path class="st2" d="M25.3,0L25.3,0c-3.3,0-6.6,0.6-9.7,1.9C9.4,4.5,4.5,9.4,1.9,15.6c-2.6,6.2-2.6,13.1,0,19.3S9.4,46,15.6,48.6
	c3.1,1.3,6.3,1.9,9.7,1.9c3.3,0,6.6-0.6,9.7-1.9C41.2,46,47,41.2,49.6,34.9l0.6-1.6l-2.6-0.6l-11.9-4.9l-1.6-0.6l-0.6,1.6
	c-0.9,2.2-2.7,4-4.9,4.9c-1.1,0.5-2.3,0.7-3.4,0.7c-1.2,0-2.4-0.2-3.5-0.7c-2.2-0.9-4-2.7-4.9-4.9s-0.9-4.7,0-6.9
	c0.9-2.2,2.7-4,4.9-4.9c1.1-0.5,2.3-0.7,3.4-0.7c1.2,0,2.4,0.2,3.5,0.7c2.2,0.9,4,2.7,4.9,4.9l0.6,1.6l1.6-0.6l11.9-4.9l2.6-0.6
	l-0.6-1.6C47,9.4,41.2,4.5,34.9,1.9C31.9,0.6,28.6,0,25.3,0L25.3,0L25.3,0z"/>
<g>
	<path class="st2" d="M169.3,15.7c5.8-2.8,11.1-6.5,15.9-11c1.3-1.4,2.4-2.1,3.3-2c0.8,0,2.1,0.7,3.8,2.2c0.1,0.1,0.2,0.2,0.4,0.4
		c3.9,3.7,8.8,7.1,14.7,10.1c2.1,1,2.8,2.3,2.2,4c-0.6,1.7-2,2.1-4.2,1.3c-4.1-1.7-9-5.1-14.7-10.3c-1.1-1.1-1.9-1.6-2.4-1.6
		c-0.1,0-0.4,0.3-0.9,0.9c-0.4,0.4-0.7,0.7-0.9,0.9c-4.6,4.1-9.4,7.5-14.5,10.1c-2.3,1.2-3.8,0.9-4.5-0.9
		C166.7,18,167.3,16.7,169.3,15.7z M167.6,41.1c4.8-6.2,7.9-13,9.2-20.7c0.2-2.2,1.6-3.6,3.5-3.1c1.7,0.2,2.1,1.8,1.7,3.7
		c-0.1,0.5-0.3,1.3-0.5,2.4c-0.2,1-0.4,1.8-0.5,2.4c0.5,0.7,1.1,1.9,2,3.4c1.1,1.8,2.6,4.3,4.2,7.6c0.8,1.6,0.7,2.4,0.4,3.3
		c3-4.7,5.2-11.2,6.5-19.4c0.4-1.9,1.6-3.1,3.3-2.7c2,0.4,2.1,1.6,2,3.5c0,1-0.3,2.3-0.5,4c-0.1,0.7-0.2,1.3-0.4,1.8
		c2.7,5.3,6.5,10,11.4,14.1c1.2,1,1.3,2.2,0.2,3.6c-1.3,1.4-2.7,1.5-4.2,0.2c-4.2-4-7.3-7.8-9.2-11.6c-1.8,4.7-3.6,8.3-5.4,10.7
		c-1.1,1.6-2.5,1.6-4,1.3c-1.4-0.3-1.8-1.8-1.3-3.3c0.2-0.7,0.7-1.4,1.4-2c-1.4,1.4-3,1.5-4.5-0.4c-0.9-1.1-1.9-3.7-4-7.4
		c-1.7,4.3-3.8,8-6.3,11.1c-1.2,1.6-2.5,2-3.8,1.3C167.3,43.8,166.9,42.6,167.6,41.1z"/>
	<path class="st2" d="M217.6,17.5c2.3-2.8,4.9-6.8,7.8-12.1c0.8-1.3,2-1.9,3.4-1.8c1.6,0.5,2.3,1.4,2.2,2.9
		c-0.1,0.4-0.2,0.7-0.4,1.1c0-0.1-0.1-0.1-0.2,0.2H252c3.4-0.2,5,1.3,4.7,4.7c0,8.5-0.1,13.8-0.4,15.9c-0.2,2.8-0.8,4.5-1.8,5.3
		c2.3-0.5,3.6,0.4,4,2.5c0.7,6.8-3.6,9.8-12.9,9.2h-14.1c-8,0.8-9.5-1.1-9.8-6.2V21.3c-0.7,0.8-1.8,1.1-3.1,0.7
		C216.7,21.1,216.3,19.6,217.6,17.5z M251.4,14.4c0-1.1,0.3-2.5-0.5-2.5L228.1,12c-0.6,1.1-1.3,2.9-2.1,3.8H242
		c3.4-0.1,5,1.1,4.9,3.6v8.3c0.1,1.2-0.1,1.9-0.7,2.2c0.4,0.1,1.3,0.2,2.7,0.2c1.1,0.1,1.8-0.8,2.2-2.7
		C251.3,25.8,251.4,21.4,251.4,14.4z M248.5,35.6c-3.7,0-5.3-1.4-4.7-4.2h-16.7v5.8c-0.2,2.1,1.1,3.7,4.7,3.4h15
		c4.2,0.1,6.4-1.4,6.3-4.8c0-0.1,0.1-0.3,0.1-0.6c0-0.2,0-0.4,0-0.5C252.4,35.3,250.8,35.6,248.5,35.6z M240.4,26.4
		c0.7,0,1.1-0.4,1.1-1.1v-3.1c0-0.8-0.3-1.3-0.9-1.3h-13.4v5.4H240.4z"/>
</g>
<g id="图层_2_1_">
</g>
</svg>
